<svg id="visual" viewBox="0 0 1920 1080" width="1920" height="1080" xmlns="http://www.w3.org/2000/svg" xmlns:xlink="http://www.w3.org/1999/xlink" version="1.1"><rect x="0" y="0" width="1920" height="1080" fill="#d08131"></rect><path d="M0 233L45.7 234.2C91.3 235.3 182.7 237.7 274.2 237.5C365.7 237.3 457.3 234.7 548.8 224.7C640.3 214.7 731.7 197.3 823 187.7C914.3 178 1005.7 176 1097 178.3C1188.3 180.7 1279.7 187.3 1371.2 193.7C1462.7 200 1554.3 206 1645.8 209.3C1737.3 212.7 1828.7 213.3 1874.3 213.7L1920 214L1920 0L1874.3 0C1828.7 0 1737.3 0 1645.8 0C1554.3 0 1462.7 0 1371.2 0C1279.7 0 1188.3 0 1097 0C1005.7 0 914.3 0 823 0C731.7 0 640.3 0 548.8 0C457.3 0 365.7 0 274.2 0C182.7 0 91.3 0 45.7 0L0 0Z" fill="#f4a658" stroke-linecap="round" stroke-linejoin="miter"></path></svg>