<svg id="visual" viewBox="0 0 1920 1080" width="1920" height="1080" xmlns="http://www.w3.org/2000/svg" xmlns:xlink="http://www.w3.org/1999/xlink" version="1.1"><rect x="0" y="0" width="1920" height="1080" fill="#ffd6ae"></rect><path d="M0 729L26.7 744C53.3 759 106.7 789 160 786C213.3 783 266.7 747 320 729.3C373.3 711.7 426.7 712.3 480 723.5C533.3 734.7 586.7 756.3 640 756.3C693.3 756.3 746.7 734.7 800 723.5C853.3 712.3 906.7 711.7 960 708.3C1013.3 705 1066.7 699 1120 705.2C1173.3 711.3 1226.7 729.7 1280 747.2C1333.3 764.7 1386.7 781.3 1440 779C1493.3 776.7 1546.7 755.3 1600 739C1653.3 722.7 1706.7 711.3 1760 713.8C1813.3 716.3 1866.7 732.7 1893.3 740.8L1920 749L1920 1081L1893.3 1081C1866.7 1081 1813.3 1081 1760 1081C1706.7 1081 1653.3 1081 1600 1081C1546.7 1081 1493.3 1081 1440 1081C1386.7 1081 1333.3 1081 1280 1081C1226.7 1081 1173.3 1081 1120 1081C1066.7 1081 1013.3 1081 960 1081C906.7 1081 853.3 1081 800 1081C746.7 1081 693.3 1081 640 1081C586.7 1081 533.3 1081 480 1081C426.7 1081 373.3 1081 320 1081C266.7 1081 213.3 1081 160 1081C106.7 1081 53.3 1081 26.7 1081L0 1081Z" fill="#f4a658" stroke-linecap="round" stroke-linejoin="miter"></path></svg>